<svg xmlns="http://www.w3.org/2000/svg" xmlns:v="https://svgstorm.com"
viewBox = "0 0 161 175"
width="161"
height="175">
<g fill="None" fill-opacity="0.0" stroke="#FEFEFD" stroke-opacity="1.00" stroke-width="0.3"><path d="
M 0.00 86.00 
C 18.97 89.20 35.29 94.06 51.25 105.75 C 67.20 117.45 55.34 145.76 72.00 157.00
C 69.04 150.18 74.06 139.13 72.00 132.00 C 69.94 124.87 75.33 113.51 70.25 107.75 C 65.16 102.00 63.96 96.40 63.00 89.00
C 57.24 91.37 47.48 101.68 40.77 95.23 C 34.06 88.77 43.83 78.50 47.00 73.00
C 40.87 71.20 27.39 71.09 27.01 61.99 C 26.63 52.89 40.36 51.05 47.00 51.00
C 44.74 45.05 33.95 35.40 40.26 28.26 C 46.57 21.11 57.28 31.43 63.00 34.00
C 64.61 28.48 65.13 13.85 74.03 14.03 C 82.92 14.20 84.37 28.73 85.00 35.00
C 90.60 31.77 100.44 21.72 107.23 27.77 C 114.02 33.82 103.73 45.60 101.00 51.00
C 107.53 51.27 121.60 52.89 121.00 62.00 C 120.40 71.11 107.53 71.70 101.00 73.00
C 104.73 78.31 113.62 88.73 107.25 95.25 C 100.87 101.76 90.67 91.38 85.00 89.00
C 84.58 96.36 82.45 103.68 77.00 109.00
C 74.85 116.18 78.19 124.48 77.00 132.00 C 75.81 139.52 78.10 148.39 77.00 156.00
C 85.12 144.95 86.18 132.42 87.33 119.33 C 88.48 106.24 102.29 102.31 111.69 96.69 C 121.10 91.08 137.48 87.23 149.00 87.00
C 141.57 95.96 132.65 107.65 134.00 121.00 C 135.35 134.35 125.71 145.86 114.30 151.30 C 102.89 156.75 89.72 162.72 76.98 163.98 C 64.23 165.24 48.77 157.81 37.77 153.23 C 26.78 148.65 15.01 139.64 14.02 126.98 C 13.03 114.31 13.02 97.62 0.00 91.00
L 0.00 175.00
L 161.00 175.00
L 161.00 0.00
L 0.00 0.00
L 0.00 86.00 Z"/>
</g>
<g fill="None" fill-opacity="0.0" stroke="#010101" stroke-opacity="1.00" stroke-width="0.3"><path d="
M 72.00 157.00 
C 74.02 158.36 74.06 159.82 76.00 157.00
C 73.88 150.40 76.25 139.95 76.00 133.00 C 75.75 126.05 74.27 114.84 77.00 109.00
C 82.45 103.68 84.58 96.36 85.00 89.00
C 90.67 91.38 100.87 101.76 107.25 95.25 C 113.62 88.73 104.73 78.31 101.00 73.00
C 107.53 71.70 120.40 71.11 121.00 62.00 C 121.60 52.89 107.53 51.27 101.00 51.00
C 103.73 45.60 114.02 33.82 107.23 27.77 C 100.44 21.72 90.60 31.77 85.00 35.00
C 84.37 28.73 82.92 14.20 74.03 14.03 C 65.13 13.85 64.61 28.48 63.00 34.00
C 57.28 31.43 46.57 21.11 40.26 28.26 C 33.95 35.40 44.74 45.05 47.00 51.00
C 40.36 51.05 26.63 52.89 27.01 61.99 C 27.39 71.09 40.87 71.20 47.00 73.00
C 43.83 78.50 34.06 88.77 40.77 95.23 C 47.48 101.68 57.24 91.37 63.00 89.00
C 63.96 96.40 65.16 102.00 70.25 107.75 C 75.33 113.51 69.94 124.87 72.00 132.00 C 74.06 139.13 69.04 150.18 72.00 157.00
M 105.00 30.00 
C 107.09 40.14 96.47 45.78 94.00 54.00
C 101.92 54.73 103.90 54.76 112.07 56.93 C 120.25 59.10 114.59 65.33 109.92 66.92 C 105.26 68.52 92.29 65.80 94.34 71.68 C 96.39 77.56 101.12 77.19 103.77 84.23 C 106.42 91.27 102.22 93.34 96.31 90.69 C 90.39 88.05 88.81 82.03 83.92 81.08 C 79.02 80.13 81.05 93.00 79.22 97.22 C 77.40 101.44 72.72 108.30 70.08 99.92 C 67.43 91.54 67.20 89.48 67.00 81.00
C 58.96 83.72 53.45 93.09 44.00 93.00
C 38.46 83.85 51.92 78.87 53.75 71.75 C 55.59 64.64 31.36 70.64 31.08 61.92 C 30.80 53.19 54.87 56.74 53.99 50.99 C 53.11 45.24 36.77 35.95 44.26 30.26 C 51.74 24.57 60.20 42.99 67.00 41.00
C 67.93 33.93 66.29 26.94 70.78 20.78 C 75.26 14.61 80.56 23.44 80.00 30.00 C 79.44 36.57 82.15 44.69 87.75 37.75 C 93.36 30.82 97.73 31.89 105.00 30.00 Z"/>
</g>
<g fill="None" fill-opacity="0.0" stroke="#F9F9F9" stroke-opacity="1.00" stroke-width="0.3"><path d="
M 105.00 30.00 
C 97.73 31.89 93.36 30.82 87.75 37.75 C 82.15 44.69 79.44 36.57 80.00 30.00 C 80.56 23.44 75.26 14.61 70.78 20.78 C 66.29 26.94 67.93 33.93 67.00 41.00
C 60.20 42.99 51.74 24.57 44.26 30.26 C 36.77 35.95 53.11 45.24 53.99 50.99 C 54.87 56.74 30.80 53.19 31.08 61.92 C 31.36 70.64 55.59 64.64 53.75 71.75 C 51.92 78.87 38.46 83.85 44.00 93.00
C 53.45 93.09 58.96 83.72 67.00 81.00
C 67.20 89.48 67.43 91.54 70.08 99.92 C 72.72 108.30 77.40 101.44 79.22 97.22 C 81.05 93.00 79.02 80.13 83.92 81.08 C 88.81 82.03 90.39 88.05 96.31 90.69 C 102.22 93.34 106.42 91.27 103.77 84.23 C 101.12 77.19 96.39 77.56 94.34 71.68 C 92.29 65.80 105.26 68.52 109.92 66.92 C 114.59 65.33 120.25 59.10 112.07 56.93 C 103.90 54.76 101.92 54.73 94.00 54.00
C 96.47 45.78 107.09 40.14 105.00 30.00
M 77.00 49.00 
C 91.92 51.93 86.97 78.00 71.33 73.67 C 55.69 69.34 61.73 46.00 77.00 49.00 Z"/>
</g>
<g fill="None" fill-opacity="0.0" stroke="#BCCA9A" stroke-opacity="1.00" stroke-width="0.3"><path d="
M 77.00 49.00 
C 61.73 46.00 55.69 69.34 71.33 73.67 C 86.97 78.00 91.92 51.93 77.00 49.00
M 78.00 54.00 
C 86.59 57.35 80.08 73.97 70.93 69.07 C 61.77 64.17 67.83 50.03 78.00 54.00 Z"/>
</g>
<g fill="None" fill-opacity="0.0" stroke="#FDFDFC" stroke-opacity="1.00" stroke-width="0.3"><path d="
M 78.00 54.00 
C 67.83 50.03 61.77 64.17 70.93 69.07 C 80.08 73.97 86.59 57.35 78.00 54.00 Z"/>
</g>
<g fill="None" fill-opacity="0.0" stroke="#BCCA9A" stroke-opacity="1.00" stroke-width="0.3"><path d="
M 0.00 91.00 
C 13.02 97.62 13.03 114.31 14.02 126.98 C 15.01 139.64 26.78 148.65 37.77 153.23 C 48.77 157.81 64.23 165.24 76.98 163.98 C 89.72 162.72 102.89 156.75 114.30 151.30 C 125.71 145.86 135.35 134.35 134.00 121.00 C 132.65 107.65 141.57 95.96 149.00 87.00
C 137.48 87.23 121.10 91.08 111.69 96.69 C 102.29 102.31 88.48 106.24 87.33 119.33 C 86.18 132.42 85.12 144.95 77.00 156.00
C 76.78 156.30 76.18 156.73 76.00 157.00
C 74.06 159.82 74.02 158.36 72.00 157.00
C 55.34 145.76 67.20 117.45 51.25 105.75 C 35.29 94.06 18.97 89.20 0.00 86.00
L 0.00 91.00
M 66.00 158.00 
C 51.77 153.74 35.52 151.35 24.75 139.25 C 13.98 127.15 21.77 105.55 10.00 93.00
C 24.15 96.81 40.74 99.65 51.25 111.75 C 61.75 123.85 53.61 146.04 66.00 158.00
M 138.00 93.00 
C 126.13 105.29 134.27 126.48 123.75 138.75 C 113.23 151.02 96.19 153.51 82.00 158.00
C 94.48 145.96 85.89 124.63 96.30 112.30 C 106.72 99.98 123.60 96.78 138.00 93.00 Z"/>
</g>
<g fill="None" fill-opacity="0.0" stroke="#FEFEFD" stroke-opacity="1.00" stroke-width="0.3"><path d="
M 66.00 158.00 
C 53.61 146.04 61.75 123.85 51.25 111.75 C 40.74 99.65 24.15 96.81 10.00 93.00
C 21.77 105.55 13.98 127.15 24.75 139.25 C 35.52 151.35 51.77 153.74 66.00 158.00 Z"/>
</g>
<g fill="None" fill-opacity="0.0" stroke="#FEFEFD" stroke-opacity="1.00" stroke-width="0.3"><path d="
M 138.00 93.00 
C 123.60 96.78 106.72 99.98 96.30 112.30 C 85.89 124.63 94.48 145.96 82.00 158.00
C 96.19 153.51 113.23 151.02 123.75 138.75 C 134.27 126.48 126.13 105.29 138.00 93.00 Z"/>
</g>
<g fill="None" fill-opacity="0.0" stroke="#878787" stroke-opacity="1.00" stroke-width="0.3"><path d="
M 76.00 157.00 
C 76.18 156.73 76.78 156.30 77.00 156.00
C 78.10 148.39 75.81 139.52 77.00 132.00 C 78.19 124.48 74.85 116.18 77.00 109.00
C 74.27 114.84 75.75 126.05 76.00 133.00 C 76.25 139.95 73.88 150.40 76.00 157.00 Z"/>
</g>
<g fill="#FEFEFD" fill-opacity="1.00" stroke="None">
<path d="
M 0.00 86.00 
C 18.97 89.20 35.29 94.06 51.25 105.75 C 67.20 117.45 55.34 145.76 72.00 157.00
C 69.04 150.18 74.06 139.13 72.00 132.00 C 69.94 124.87 75.33 113.51 70.25 107.75 C 65.16 102.00 63.96 96.40 63.00 89.00
C 57.24 91.37 47.48 101.68 40.77 95.23 C 34.06 88.77 43.83 78.50 47.00 73.00
C 40.87 71.20 27.39 71.09 27.01 61.99 C 26.63 52.89 40.36 51.05 47.00 51.00
C 44.74 45.05 33.95 35.40 40.26 28.26 C 46.57 21.11 57.28 31.43 63.00 34.00
C 64.61 28.48 65.13 13.85 74.03 14.03 C 82.92 14.20 84.37 28.73 85.00 35.00
C 90.60 31.77 100.44 21.72 107.23 27.77 C 114.02 33.82 103.73 45.60 101.00 51.00
C 107.53 51.27 121.60 52.89 121.00 62.00 C 120.40 71.11 107.53 71.70 101.00 73.00
C 104.73 78.31 113.62 88.73 107.25 95.25 C 100.87 101.76 90.67 91.38 85.00 89.00
C 84.58 96.36 82.45 103.68 77.00 109.00
C 74.85 116.18 78.19 124.48 77.00 132.00 C 75.81 139.52 78.10 148.39 77.00 156.00
C 85.12 144.95 86.18 132.42 87.33 119.33 C 88.48 106.24 102.29 102.31 111.69 96.69 C 121.10 91.08 137.48 87.23 149.00 87.00
C 141.57 95.96 132.65 107.65 134.00 121.00 C 135.35 134.35 125.71 145.86 114.30 151.30 C 102.89 156.75 89.72 162.72 76.98 163.98 C 64.23 165.24 48.77 157.81 37.77 153.23 C 26.78 148.65 15.01 139.64 14.02 126.98 C 13.03 114.31 13.02 97.62 0.00 91.00
L 0.00 175.00
L 161.00 175.00
L 161.00 0.00
L 0.00 0.00
L 0.00 86.00 Z"/>
</g>
<g fill="#010101" fill-opacity="1.00" stroke="None">
<path d="
M 72.00 157.00 
C 74.02 158.36 74.06 159.82 76.00 157.00
C 73.88 150.40 76.25 139.95 76.00 133.00 C 75.75 126.05 74.27 114.84 77.00 109.00
C 82.45 103.68 84.58 96.36 85.00 89.00
C 90.67 91.38 100.87 101.76 107.25 95.25 C 113.62 88.73 104.73 78.31 101.00 73.00
C 107.53 71.70 120.40 71.11 121.00 62.00 C 121.60 52.89 107.53 51.27 101.00 51.00
C 103.73 45.60 114.02 33.82 107.23 27.77 C 100.44 21.72 90.60 31.77 85.00 35.00
C 84.37 28.73 82.92 14.20 74.03 14.03 C 65.13 13.85 64.61 28.48 63.00 34.00
C 57.28 31.43 46.57 21.11 40.26 28.26 C 33.95 35.40 44.74 45.05 47.00 51.00
C 40.36 51.05 26.63 52.89 27.01 61.99 C 27.39 71.09 40.87 71.20 47.00 73.00
C 43.83 78.50 34.06 88.77 40.77 95.23 C 47.48 101.68 57.24 91.37 63.00 89.00
C 63.96 96.40 65.16 102.00 70.25 107.75 C 75.33 113.51 69.94 124.87 72.00 132.00 C 74.06 139.13 69.04 150.18 72.00 157.00
M 105.00 30.00 
C 107.09 40.14 96.47 45.78 94.00 54.00
C 101.92 54.73 103.90 54.76 112.07 56.93 C 120.25 59.10 114.59 65.33 109.92 66.92 C 105.26 68.52 92.29 65.80 94.34 71.68 C 96.39 77.56 101.12 77.19 103.77 84.23 C 106.42 91.27 102.22 93.34 96.31 90.69 C 90.39 88.05 88.81 82.03 83.92 81.08 C 79.02 80.13 81.05 93.00 79.22 97.22 C 77.40 101.44 72.72 108.30 70.08 99.92 C 67.43 91.54 67.20 89.48 67.00 81.00
C 58.96 83.72 53.45 93.09 44.00 93.00
C 38.46 83.85 51.92 78.87 53.75 71.75 C 55.59 64.64 31.36 70.64 31.08 61.92 C 30.80 53.19 54.87 56.74 53.99 50.99 C 53.11 45.24 36.77 35.95 44.26 30.26 C 51.74 24.57 60.20 42.99 67.00 41.00
C 67.93 33.93 66.29 26.94 70.78 20.78 C 75.26 14.61 80.56 23.44 80.00 30.00 C 79.44 36.57 82.15 44.69 87.75 37.75 C 93.36 30.82 97.73 31.89 105.00 30.00 Z"/>
</g>
<g fill="#F9F9F9" fill-opacity="1.00" stroke="None">
<path d="
M 105.00 30.00 
C 97.73 31.89 93.36 30.82 87.75 37.75 C 82.15 44.69 79.44 36.57 80.00 30.00 C 80.56 23.44 75.26 14.61 70.78 20.78 C 66.29 26.94 67.93 33.93 67.00 41.00
C 60.20 42.99 51.74 24.57 44.26 30.26 C 36.77 35.95 53.11 45.24 53.99 50.99 C 54.87 56.74 30.80 53.19 31.08 61.92 C 31.36 70.64 55.59 64.64 53.75 71.75 C 51.92 78.87 38.46 83.85 44.00 93.00
C 53.45 93.09 58.96 83.72 67.00 81.00
C 67.20 89.48 67.43 91.54 70.08 99.92 C 72.72 108.30 77.40 101.44 79.22 97.22 C 81.05 93.00 79.02 80.13 83.92 81.08 C 88.81 82.03 90.39 88.05 96.31 90.69 C 102.22 93.34 106.42 91.27 103.77 84.23 C 101.12 77.19 96.39 77.56 94.34 71.68 C 92.29 65.80 105.26 68.52 109.92 66.92 C 114.59 65.33 120.25 59.10 112.07 56.93 C 103.90 54.76 101.92 54.73 94.00 54.00
C 96.47 45.78 107.09 40.14 105.00 30.00
M 77.00 49.00 
C 91.92 51.93 86.97 78.00 71.33 73.67 C 55.69 69.34 61.73 46.00 77.00 49.00 Z"/>
</g>
<g fill="#BCCA9A" fill-opacity="1.00" stroke="None">
<path d="
M 77.00 49.00 
C 61.73 46.00 55.69 69.34 71.33 73.67 C 86.97 78.00 91.92 51.93 77.00 49.00
M 78.00 54.00 
C 86.59 57.35 80.08 73.97 70.93 69.07 C 61.77 64.17 67.83 50.03 78.00 54.00 Z"/>
</g>
<g fill="#FDFDFC" fill-opacity="1.00" stroke="None">
<path d="
M 78.00 54.00 
C 67.83 50.03 61.77 64.17 70.93 69.07 C 80.08 73.97 86.59 57.35 78.00 54.00 Z"/>
</g>
<g fill="#BCCA9A" fill-opacity="1.00" stroke="None">
<path d="
M 0.00 91.00 
C 13.02 97.62 13.03 114.31 14.02 126.98 C 15.01 139.64 26.78 148.65 37.77 153.23 C 48.77 157.81 64.23 165.24 76.98 163.98 C 89.72 162.72 102.89 156.75 114.30 151.30 C 125.71 145.86 135.35 134.35 134.00 121.00 C 132.65 107.65 141.57 95.96 149.00 87.00
C 137.48 87.23 121.10 91.08 111.69 96.69 C 102.29 102.31 88.48 106.24 87.33 119.33 C 86.18 132.42 85.12 144.95 77.00 156.00
C 76.78 156.30 76.18 156.73 76.00 157.00
C 74.06 159.82 74.02 158.36 72.00 157.00
C 55.34 145.76 67.20 117.45 51.25 105.75 C 35.29 94.06 18.97 89.20 0.00 86.00
L 0.00 91.00
M 66.00 158.00 
C 51.77 153.74 35.52 151.35 24.75 139.25 C 13.98 127.15 21.77 105.55 10.00 93.00
C 24.15 96.81 40.74 99.65 51.25 111.75 C 61.75 123.85 53.61 146.04 66.00 158.00
M 138.00 93.00 
C 126.13 105.29 134.27 126.48 123.75 138.75 C 113.23 151.02 96.19 153.51 82.00 158.00
C 94.48 145.96 85.89 124.63 96.30 112.30 C 106.72 99.98 123.60 96.78 138.00 93.00 Z"/>
</g>
<g fill="#FEFEFD" fill-opacity="1.00" stroke="None">
<path d="
M 66.00 158.00 
C 53.61 146.04 61.75 123.85 51.25 111.75 C 40.74 99.65 24.15 96.81 10.00 93.00
C 21.77 105.55 13.98 127.15 24.75 139.25 C 35.52 151.35 51.77 153.74 66.00 158.00 Z"/>
</g>
<g fill="#FEFEFD" fill-opacity="1.00" stroke="None">
<path d="
M 138.00 93.00 
C 123.60 96.78 106.72 99.98 96.30 112.30 C 85.89 124.63 94.48 145.96 82.00 158.00
C 96.19 153.51 113.23 151.02 123.75 138.75 C 134.27 126.48 126.13 105.29 138.00 93.00 Z"/>
</g>
<g fill="#878787" fill-opacity="1.00" stroke="None">
<path d="
M 76.00 157.00 
C 76.18 156.73 76.78 156.30 77.00 156.00
C 78.10 148.39 75.81 139.52 77.00 132.00 C 78.19 124.48 74.85 116.18 77.00 109.00
C 74.27 114.84 75.75 126.05 76.00 133.00 C 76.25 139.95 73.88 150.40 76.00 157.00 Z"/>
</g>
</svg>