<svg xmlns="http://www.w3.org/2000/svg" xmlns:v="https://svgstorm.com"
viewBox = "0 0 226 171"
width="226"
height="171">
<g fill="None" fill-opacity="0.0" stroke="#FEFEFD" stroke-opacity="1.00" stroke-width="0.3"><path d="
M 0.00 171.00 
L 226.00 171.00
L 226.00 0.00
L 0.00 0.00
L 0.00 171.00
M 102.00 53.00 
C 102.99 53.61 107.99 58.88 108.00 60.00
C 108.09 60.99 107.92 62.01 108.00 63.00
C 102.29 60.50 96.11 58.30 93.08 50.92 C 90.06 43.54 108.49 53.45 109.75 46.75 C 111.01 40.05 97.59 39.55 90.98 39.02 C 84.36 38.50 72.99 35.70 66.00 38.00
C 60.58 35.82 57.72 24.42 64.25 29.76 C 70.77 35.09 76.57 32.18 84.01 33.99 C 91.45 35.81 99.00 34.35 106.07 36.93 C 113.14 39.51 117.53 36.18 125.00 36.00 C 132.47 35.82 138.37 32.52 146.02 33.02 C 153.68 33.53 159.78 31.11 166.00 28.00
C 163.74 37.43 157.44 37.53 149.00 37.00 C 140.56 36.48 133.48 40.90 124.00 40.00 C 114.52 39.10 112.32 51.49 124.02 48.02 C 135.73 44.56 132.80 51.38 125.75 57.75 C 118.71 64.13 116.18 60.42 124.00 53.00
C 115.64 52.23 110.37 51.86 102.00 53.00
M 165.00 87.00 
C 162.77 89.61 154.49 101.02 151.00 101.00
C 144.99 101.48 153.04 90.50 157.25 88.25 C 161.46 86.00 165.30 78.18 170.25 75.25 C 175.19 72.32 175.11 60.42 177.77 56.77 C 180.43 53.12 190.40 43.68 185.25 55.25 C 180.09 66.82 173.78 76.72 165.00 87.00
M 54.00 74.00 
C 57.00 77.44 61.02 80.51 64.00 84.00
C 66.16 86.53 81.38 102.29 73.77 100.21 C 66.16 98.14 63.73 87.30 56.75 83.25 C 49.77 79.20 44.61 67.79 45.00 60.00
C 36.34 56.60 38.44 49.73 45.25 55.75 C 52.05 61.77 47.92 67.31 54.00 74.00
M 96.00 68.00 
C 84.08 67.79 96.05 56.42 96.00 68.00
M 135.00 62.00 
C 135.84 65.49 132.62 69.49 129.00 69.00
C 128.16 65.51 131.38 61.51 135.00 62.00
M 132.00 80.00 
C 144.24 77.03 145.63 91.16 144.00 100.00 C 142.37 108.84 146.67 123.48 143.67 131.67 C 140.67 139.86 137.19 148.22 133.00 153.00
C 132.59 146.35 132.33 140.77 136.77 135.77 C 141.21 130.77 138.82 124.41 140.00 118.00 C 141.18 111.59 137.35 103.45 139.00 97.00 C 140.65 90.55 137.06 81.35 132.08 87.08 C 127.11 92.82 136.90 103.09 131.67 107.67 C 126.44 112.25 128.29 95.39 128.00 92.00 C 127.71 88.61 130.29 74.92 123.97 75.03 C 117.66 75.13 119.79 89.24 120.00 93.00 C 120.21 96.76 120.13 111.77 116.25 107.74 C 112.37 103.71 117.97 91.39 116.00 87.00 C 114.03 82.61 119.44 68.76 111.97 69.03 C 104.51 69.29 108.94 80.65 108.00 86.00 C 107.06 91.35 108.71 102.15 108.00 108.00
C 103.02 106.77 101.59 95.03 104.00 89.00 C 106.41 82.97 99.62 70.24 97.03 78.03 C 94.44 85.82 96.76 94.15 97.00 101.00 C 97.24 107.85 96.01 120.09 91.25 114.75 C 86.49 109.41 81.65 102.61 79.03 109.03 C 76.41 115.44 87.03 117.33 88.25 122.75 C 89.48 128.16 96.03 131.13 98.75 136.25 C 101.48 141.36 109.55 145.09 106.00 153.00
C 100.86 152.89 101.62 144.47 96.75 141.25 C 91.88 138.03 91.59 132.32 87.25 128.75 C 82.90 125.19 81.78 121.03 78.08 116.92 C 74.38 112.81 72.15 106.82 77.75 102.75 C 83.35 98.68 87.94 102.89 92.00 107.00
C 94.07 95.48 84.97 67.62 104.00 71.00
C 105.06 64.13 114.72 61.76 118.25 67.75 C 121.78 73.74 133.66 69.17 132.00 80.00
M 82.00 71.00 
C 94.71 72.86 82.55 83.70 82.00 71.00
M 143.00 71.00 
C 145.67 72.32 141.11 78.56 138.32 76.66 C 135.54 74.76 140.28 69.65 143.00 71.00
M 76.00 79.00 
C 79.70 79.30 88.17 93.26 83.30 92.64 C 78.43 92.02 70.16 78.53 76.00 79.00
M 151.00 79.00 
C 154.18 89.52 139.50 83.13 151.00 79.00 Z"/>
</g>
<g fill="None" fill-opacity="0.0" stroke="#000000" stroke-opacity="1.00" stroke-width="0.3"><path d="
M 108.00 60.00 
C 108.00 59.99 98.72 50.99 102.00 53.00
C 110.37 51.86 115.64 52.23 124.00 53.00
C 116.18 60.42 118.71 64.13 125.75 57.75 C 132.80 51.38 135.73 44.56 124.02 48.02 C 112.32 51.49 114.52 39.10 124.00 40.00 C 133.48 40.90 140.56 36.48 149.00 37.00 C 157.44 37.53 163.74 37.43 166.00 28.00
C 159.78 31.11 153.68 33.53 146.02 33.02 C 138.37 32.52 132.47 35.82 125.00 36.00 C 117.53 36.18 113.14 39.51 106.07 36.93 C 99.00 34.35 91.45 35.81 84.01 33.99 C 76.57 32.18 70.77 35.09 64.25 29.76 C 57.72 24.42 60.58 35.82 66.00 38.00
C 72.99 35.70 84.36 38.50 90.98 39.02 C 97.59 39.55 111.01 40.05 109.75 46.75 C 108.49 53.45 90.06 43.54 93.08 50.92 C 96.11 58.30 102.29 60.50 108.00 63.00
C 107.92 62.01 108.09 60.99 108.00 60.00 Z"/>
</g>
<g fill="None" fill-opacity="0.0" stroke="#010101" stroke-opacity="1.00" stroke-width="0.3"><path d="
M 151.00 101.00 
C 152.66 100.87 155.86 95.07 157.75 93.75 C 159.64 92.43 163.32 88.68 165.00 87.00
C 173.78 76.72 180.09 66.82 185.25 55.25 C 190.40 43.68 180.43 53.12 177.77 56.77 C 175.11 60.42 175.19 72.32 170.25 75.25 C 165.30 78.18 161.46 86.00 157.25 88.25 C 153.04 90.50 144.99 101.48 151.00 101.00 Z"/>
</g>
<g fill="None" fill-opacity="0.0" stroke="#000000" stroke-opacity="1.00" stroke-width="0.3"><path d="
M 64.00 84.00 
C 60.69 80.69 56.80 77.77 54.00 74.00
C 47.92 67.31 52.05 61.77 45.25 55.75 C 38.44 49.73 36.34 56.60 45.00 60.00
C 44.61 67.79 49.77 79.20 56.75 83.25 C 63.73 87.30 66.16 98.14 73.77 100.21 C 81.38 102.29 66.16 86.53 64.00 84.00 Z"/>
</g>
<g fill="None" fill-opacity="0.0" stroke="#727272" stroke-opacity="1.00" stroke-width="0.3"><path d="
M 108.00 60.00 
C 107.99 58.88 102.99 53.61 102.00 53.00
C 98.72 50.99 108.00 59.99 108.00 60.00 Z"/>
</g>
<g fill="None" fill-opacity="0.0" stroke="#030303" stroke-opacity="1.00" stroke-width="0.3"><path d="
M 96.00 68.00 
C 96.05 56.42 84.08 67.79 96.00 68.00 Z"/>
</g>
<g fill="None" fill-opacity="0.0" stroke="#030303" stroke-opacity="1.00" stroke-width="0.3"><path d="
M 135.00 62.00 
C 131.38 61.51 128.16 65.51 129.00 69.00
C 132.62 69.49 135.84 65.49 135.00 62.00 Z"/>
</g>
<g fill="None" fill-opacity="0.0" stroke="#BBCA98" stroke-opacity="1.00" stroke-width="0.3"><path d="
M 132.00 80.00 
C 133.66 69.17 121.78 73.74 118.25 67.75 C 114.72 61.76 105.06 64.13 104.00 71.00
C 84.97 67.62 94.07 95.48 92.00 107.00
C 87.94 102.89 83.35 98.68 77.75 102.75 C 72.15 106.82 74.38 112.81 78.08 116.92 C 81.78 121.03 82.90 125.19 87.25 128.75 C 91.59 132.32 91.88 138.03 96.75 141.25 C 101.62 144.47 100.86 152.89 106.00 153.00
C 109.55 145.09 101.48 141.36 98.75 136.25 C 96.03 131.13 89.48 128.16 88.25 122.75 C 87.03 117.33 76.41 115.44 79.03 109.03 C 81.65 102.61 86.49 109.41 91.25 114.75 C 96.01 120.09 97.24 107.85 97.00 101.00 C 96.76 94.15 94.44 85.82 97.03 78.03 C 99.62 70.24 106.41 82.97 104.00 89.00 C 101.59 95.03 103.02 106.77 108.00 108.00
C 108.71 102.15 107.06 91.35 108.00 86.00 C 108.94 80.65 104.51 69.29 111.97 69.03 C 119.44 68.76 114.03 82.61 116.00 87.00 C 117.97 91.39 112.37 103.71 116.25 107.74 C 120.13 111.77 120.21 96.76 120.00 93.00 C 119.79 89.24 117.66 75.13 123.97 75.03 C 130.29 74.92 127.71 88.61 128.00 92.00 C 128.29 95.39 126.44 112.25 131.67 107.67 C 136.90 103.09 127.11 92.82 132.08 87.08 C 137.06 81.35 140.65 90.55 139.00 97.00 C 137.35 103.45 141.18 111.59 140.00 118.00 C 138.82 124.41 141.21 130.77 136.77 135.77 C 132.33 140.77 132.59 146.35 133.00 153.00
C 137.19 148.22 140.67 139.86 143.67 131.67 C 146.67 123.48 142.37 108.84 144.00 100.00 C 145.63 91.16 144.24 77.03 132.00 80.00 Z"/>
</g>
<g fill="None" fill-opacity="0.0" stroke="#010101" stroke-opacity="1.00" stroke-width="0.3"><path d="
M 82.00 71.00 
C 82.55 83.70 94.71 72.86 82.00 71.00 Z"/>
</g>
<g fill="None" fill-opacity="0.0" stroke="#040404" stroke-opacity="1.00" stroke-width="0.3"><path d="
M 143.00 71.00 
C 140.28 69.65 135.54 74.76 138.32 76.66 C 141.11 78.56 145.67 72.32 143.00 71.00 Z"/>
</g>
<g fill="None" fill-opacity="0.0" stroke="#838383" stroke-opacity="1.00" stroke-width="0.3"><path d="
M 64.00 84.00 
C 61.02 80.51 57.00 77.44 54.00 74.00
C 56.80 77.77 60.69 80.69 64.00 84.00 Z"/>
</g>
<g fill="None" fill-opacity="0.0" stroke="#020202" stroke-opacity="1.00" stroke-width="0.3"><path d="
M 76.00 79.00 
C 70.16 78.53 78.43 92.02 83.30 92.64 C 88.17 93.26 79.70 79.30 76.00 79.00 Z"/>
</g>
<g fill="None" fill-opacity="0.0" stroke="#030303" stroke-opacity="1.00" stroke-width="0.3"><path d="
M 151.00 79.00 
C 139.50 83.13 154.18 89.52 151.00 79.00 Z"/>
</g>
<g fill="None" fill-opacity="0.0" stroke="#7B7C7B" stroke-opacity="1.00" stroke-width="0.3"><path d="
M 151.00 101.00 
C 154.49 101.02 162.77 89.61 165.00 87.00
C 163.32 88.68 159.64 92.43 157.75 93.75 C 155.86 95.07 152.66 100.87 151.00 101.00 Z"/>
</g>
<g fill="#FEFEFD" fill-opacity="1.00" stroke="None">
<path d="
M 0.00 171.00 
L 226.00 171.00
L 226.00 0.00
L 0.00 0.00
L 0.00 171.00
M 102.00 53.00 
C 102.99 53.61 107.99 58.88 108.00 60.00
C 108.09 60.99 107.92 62.01 108.00 63.00
C 102.29 60.50 96.11 58.30 93.08 50.92 C 90.06 43.54 108.49 53.45 109.75 46.75 C 111.01 40.05 97.59 39.55 90.98 39.02 C 84.36 38.50 72.99 35.70 66.00 38.00
C 60.58 35.82 57.72 24.42 64.25 29.76 C 70.77 35.09 76.57 32.18 84.01 33.99 C 91.45 35.81 99.00 34.35 106.07 36.93 C 113.14 39.51 117.53 36.18 125.00 36.00 C 132.47 35.82 138.37 32.52 146.02 33.02 C 153.68 33.53 159.78 31.11 166.00 28.00
C 163.74 37.43 157.44 37.53 149.00 37.00 C 140.56 36.48 133.48 40.90 124.00 40.00 C 114.52 39.10 112.32 51.49 124.02 48.02 C 135.73 44.56 132.80 51.38 125.75 57.75 C 118.71 64.13 116.18 60.42 124.00 53.00
C 115.64 52.23 110.37 51.86 102.00 53.00
M 165.00 87.00 
C 162.77 89.61 154.49 101.02 151.00 101.00
C 144.99 101.48 153.04 90.50 157.25 88.25 C 161.46 86.00 165.30 78.18 170.25 75.25 C 175.19 72.32 175.11 60.42 177.77 56.77 C 180.43 53.12 190.40 43.68 185.25 55.25 C 180.09 66.82 173.78 76.72 165.00 87.00
M 54.00 74.00 
C 57.00 77.44 61.02 80.51 64.00 84.00
C 66.16 86.53 81.38 102.29 73.77 100.21 C 66.16 98.14 63.73 87.30 56.75 83.25 C 49.77 79.20 44.61 67.79 45.00 60.00
C 36.34 56.60 38.44 49.73 45.25 55.75 C 52.05 61.77 47.92 67.31 54.00 74.00
M 96.00 68.00 
C 84.08 67.79 96.05 56.42 96.00 68.00
M 135.00 62.00 
C 135.84 65.49 132.62 69.49 129.00 69.00
C 128.16 65.51 131.38 61.51 135.00 62.00
M 132.00 80.00 
C 144.24 77.03 145.63 91.16 144.00 100.00 C 142.37 108.84 146.67 123.48 143.67 131.67 C 140.67 139.86 137.19 148.22 133.00 153.00
C 132.59 146.35 132.33 140.77 136.77 135.77 C 141.21 130.77 138.82 124.41 140.00 118.00 C 141.18 111.59 137.35 103.45 139.00 97.00 C 140.65 90.55 137.06 81.35 132.08 87.08 C 127.11 92.82 136.90 103.09 131.67 107.67 C 126.44 112.25 128.29 95.39 128.00 92.00 C 127.71 88.61 130.29 74.92 123.97 75.03 C 117.66 75.13 119.79 89.24 120.00 93.00 C 120.21 96.76 120.13 111.77 116.25 107.74 C 112.37 103.71 117.97 91.39 116.00 87.00 C 114.03 82.61 119.44 68.76 111.97 69.03 C 104.51 69.29 108.94 80.65 108.00 86.00 C 107.06 91.35 108.71 102.15 108.00 108.00
C 103.02 106.77 101.59 95.03 104.00 89.00 C 106.41 82.97 99.62 70.24 97.03 78.03 C 94.44 85.82 96.76 94.15 97.00 101.00 C 97.24 107.85 96.01 120.09 91.25 114.75 C 86.49 109.41 81.65 102.61 79.03 109.03 C 76.41 115.44 87.03 117.33 88.25 122.75 C 89.48 128.16 96.03 131.13 98.75 136.25 C 101.48 141.36 109.55 145.09 106.00 153.00
C 100.86 152.89 101.62 144.47 96.75 141.25 C 91.88 138.03 91.59 132.32 87.25 128.75 C 82.90 125.19 81.78 121.03 78.08 116.92 C 74.38 112.81 72.15 106.82 77.75 102.75 C 83.35 98.68 87.94 102.89 92.00 107.00
C 94.07 95.48 84.97 67.62 104.00 71.00
C 105.06 64.13 114.72 61.76 118.25 67.75 C 121.78 73.74 133.66 69.17 132.00 80.00
M 82.00 71.00 
C 94.71 72.86 82.55 83.70 82.00 71.00
M 143.00 71.00 
C 145.67 72.32 141.11 78.56 138.32 76.66 C 135.54 74.76 140.28 69.65 143.00 71.00
M 76.00 79.00 
C 79.70 79.30 88.17 93.26 83.30 92.64 C 78.43 92.02 70.16 78.53 76.00 79.00
M 151.00 79.00 
C 154.18 89.52 139.50 83.13 151.00 79.00 Z"/>
</g>
<g fill="#000000" fill-opacity="1.00" stroke="None">
<path d="
M 108.00 60.00 
C 108.00 59.99 98.72 50.99 102.00 53.00
C 110.37 51.86 115.64 52.23 124.00 53.00
C 116.18 60.42 118.71 64.13 125.75 57.75 C 132.80 51.38 135.73 44.56 124.02 48.02 C 112.32 51.49 114.52 39.10 124.00 40.00 C 133.48 40.90 140.56 36.48 149.00 37.00 C 157.44 37.53 163.74 37.43 166.00 28.00
C 159.78 31.11 153.68 33.53 146.02 33.02 C 138.37 32.52 132.47 35.82 125.00 36.00 C 117.53 36.18 113.14 39.51 106.07 36.93 C 99.00 34.35 91.45 35.81 84.01 33.99 C 76.57 32.18 70.77 35.09 64.25 29.76 C 57.72 24.42 60.58 35.82 66.00 38.00
C 72.99 35.70 84.36 38.50 90.98 39.02 C 97.59 39.55 111.01 40.05 109.75 46.75 C 108.49 53.45 90.06 43.54 93.08 50.92 C 96.11 58.30 102.29 60.50 108.00 63.00
C 107.92 62.01 108.09 60.99 108.00 60.00 Z"/>
</g>
<g fill="#010101" fill-opacity="1.00" stroke="None">
<path d="
M 151.00 101.00 
C 152.66 100.87 155.86 95.07 157.75 93.75 C 159.64 92.43 163.32 88.68 165.00 87.00
C 173.78 76.72 180.09 66.82 185.25 55.25 C 190.40 43.68 180.43 53.12 177.77 56.77 C 175.11 60.42 175.19 72.32 170.25 75.25 C 165.30 78.18 161.46 86.00 157.25 88.25 C 153.04 90.50 144.99 101.48 151.00 101.00 Z"/>
</g>
<g fill="#000000" fill-opacity="1.00" stroke="None">
<path d="
M 64.00 84.00 
C 60.69 80.69 56.80 77.77 54.00 74.00
C 47.92 67.31 52.05 61.77 45.25 55.75 C 38.44 49.73 36.34 56.60 45.00 60.00
C 44.61 67.79 49.77 79.20 56.75 83.25 C 63.73 87.30 66.16 98.14 73.77 100.21 C 81.38 102.29 66.16 86.53 64.00 84.00 Z"/>
</g>
<g fill="#727272" fill-opacity="1.00" stroke="None">
<path d="
M 108.00 60.00 
C 107.99 58.88 102.99 53.61 102.00 53.00
C 98.72 50.99 108.00 59.99 108.00 60.00 Z"/>
</g>
<g fill="#030303" fill-opacity="1.00" stroke="None">
<path d="
M 96.00 68.00 
C 96.05 56.42 84.08 67.79 96.00 68.00 Z"/>
</g>
<g fill="#030303" fill-opacity="1.00" stroke="None">
<path d="
M 135.00 62.00 
C 131.38 61.51 128.16 65.51 129.00 69.00
C 132.62 69.49 135.84 65.49 135.00 62.00 Z"/>
</g>
<g fill="#BBCA98" fill-opacity="1.00" stroke="None">
<path d="
M 132.00 80.00 
C 133.66 69.17 121.78 73.74 118.25 67.75 C 114.72 61.76 105.06 64.13 104.00 71.00
C 84.97 67.62 94.07 95.48 92.00 107.00
C 87.94 102.89 83.35 98.68 77.75 102.75 C 72.15 106.82 74.38 112.81 78.08 116.92 C 81.78 121.03 82.90 125.19 87.25 128.75 C 91.59 132.32 91.88 138.03 96.75 141.25 C 101.62 144.47 100.86 152.89 106.00 153.00
C 109.55 145.09 101.48 141.36 98.75 136.25 C 96.03 131.13 89.48 128.16 88.25 122.75 C 87.03 117.33 76.41 115.44 79.03 109.03 C 81.65 102.61 86.49 109.41 91.25 114.75 C 96.01 120.09 97.24 107.85 97.00 101.00 C 96.76 94.15 94.44 85.82 97.03 78.03 C 99.62 70.24 106.41 82.97 104.00 89.00 C 101.59 95.03 103.02 106.77 108.00 108.00
C 108.71 102.15 107.06 91.35 108.00 86.00 C 108.94 80.65 104.51 69.29 111.97 69.03 C 119.44 68.76 114.03 82.61 116.00 87.00 C 117.97 91.39 112.37 103.71 116.25 107.74 C 120.13 111.77 120.21 96.76 120.00 93.00 C 119.79 89.24 117.66 75.13 123.97 75.03 C 130.29 74.92 127.71 88.61 128.00 92.00 C 128.29 95.39 126.44 112.25 131.67 107.67 C 136.90 103.09 127.11 92.82 132.08 87.08 C 137.06 81.35 140.65 90.55 139.00 97.00 C 137.35 103.45 141.18 111.59 140.00 118.00 C 138.82 124.41 141.21 130.77 136.77 135.77 C 132.33 140.77 132.59 146.35 133.00 153.00
C 137.19 148.22 140.67 139.86 143.67 131.67 C 146.67 123.48 142.37 108.84 144.00 100.00 C 145.63 91.16 144.24 77.03 132.00 80.00 Z"/>
</g>
<g fill="#010101" fill-opacity="1.00" stroke="None">
<path d="
M 82.00 71.00 
C 82.55 83.70 94.71 72.86 82.00 71.00 Z"/>
</g>
<g fill="#040404" fill-opacity="1.00" stroke="None">
<path d="
M 143.00 71.00 
C 140.28 69.65 135.54 74.76 138.32 76.66 C 141.11 78.56 145.67 72.32 143.00 71.00 Z"/>
</g>
<g fill="#838383" fill-opacity="1.00" stroke="None">
<path d="
M 64.00 84.00 
C 61.02 80.51 57.00 77.44 54.00 74.00
C 56.80 77.77 60.69 80.69 64.00 84.00 Z"/>
</g>
<g fill="#020202" fill-opacity="1.00" stroke="None">
<path d="
M 76.00 79.00 
C 70.16 78.53 78.43 92.02 83.30 92.64 C 88.17 93.26 79.70 79.30 76.00 79.00 Z"/>
</g>
<g fill="#030303" fill-opacity="1.00" stroke="None">
<path d="
M 151.00 79.00 
C 139.50 83.13 154.18 89.52 151.00 79.00 Z"/>
</g>
<g fill="#7B7C7B" fill-opacity="1.00" stroke="None">
<path d="
M 151.00 101.00 
C 154.49 101.02 162.77 89.61 165.00 87.00
C 163.32 88.68 159.64 92.43 157.75 93.75 C 155.86 95.07 152.66 100.87 151.00 101.00 Z"/>
</g>
</svg>