<svg xmlns="http://www.w3.org/2000/svg" xmlns:v="https://svgstorm.com"
viewBox = "0 0 185 163"
width="185"
height="163">
<g fill="None" fill-opacity="0.0" stroke="#FDFDFD" stroke-opacity="1.00" stroke-width="0.3"><path d="
M 0.00 163.00 
L 185.00 163.00
L 185.00 0.00
L 0.00 0.00
L 0.00 163.00
M 99.00 16.00 
C 101.99 15.07 105.78 16.79 108.00 17.00
C 115.96 17.00 125.25 18.46 132.08 21.92 C 138.91 25.38 144.18 28.06 149.75 33.25 C 155.33 38.44 159.46 43.47 162.92 50.08 C 166.38 56.70 169.92 63.20 170.98 71.02 C 172.03 78.85 174.42 91.50 163.25 80.75 C 152.07 70.01 131.87 73.74 123.00 86.00
C 116.25 82.26 110.74 74.51 102.00 75.00
C 98.01 76.71 100.39 86.65 100.00 91.00
C 109.04 91.84 110.56 101.32 112.00 109.00 C 113.44 116.68 106.88 126.18 105.00 133.00
C 113.64 134.19 123.11 129.41 125.92 141.08 C 128.73 152.74 124.87 156.10 113.00 155.00 C 101.13 153.90 95.05 154.90 83.00 155.00 C 70.95 155.10 67.38 155.18 69.93 142.93 C 72.48 130.67 78.85 133.04 90.00 133.00
C 88.83 125.36 80.85 118.63 82.00 110.00 C 83.15 101.37 86.24 93.74 95.00 91.00
C 94.70 87.67 96.80 76.80 94.00 75.00
C 88.06 74.25 83.44 78.22 78.75 82.75 C 74.07 87.28 70.20 82.36 65.30 78.70 C 60.40 75.03 53.18 72.94 46.78 74.78 C 40.37 76.62 37.09 76.61 31.30 82.30 C 25.52 87.99 23.43 81.15 25.98 72.98 C 28.52 64.80 26.98 63.19 31.32 54.32 C 35.67 45.45 44.36 34.51 52.75 28.75 C 61.14 22.99 60.73 23.64 68.23 20.23 C 75.73 16.82 81.14 17.22 89.00 17.00
C 90.33 16.85 92.97 15.07 95.00 16.00
C 96.28 14.23 92.84 4.87 97.08 5.08 C 101.33 5.30 97.63 14.05 99.00 16.00
M 50.00 137.00 
C 53.18 136.48 56.53 137.25 59.00 138.00
C 63.06 139.23 70.96 151.32 64.74 154.74 C 58.52 158.17 47.23 154.01 40.00 155.00 C 32.77 155.99 21.73 157.85 22.78 148.78 C 23.83 139.71 27.42 135.56 38.00 138.00
C 31.52 130.30 27.88 108.23 43.01 107.01 C 58.13 105.78 58.44 129.42 50.00 137.00
M 135.00 139.00 
C 137.52 138.13 140.83 137.59 144.00 138.00
C 141.44 134.58 139.33 131.33 139.00 127.00
C 138.56 124.90 138.67 124.00 139.00 122.00
C 139.48 112.64 149.34 105.19 156.75 113.25 C 164.16 121.30 158.58 131.44 155.00 139.00
C 164.45 138.37 167.21 138.40 169.33 147.67 C 171.45 156.94 161.15 155.76 154.00 155.00 C 146.85 154.24 137.23 156.60 131.00 155.00 C 124.77 153.40 130.27 138.14 135.00 139.00 Z"/>
</g>
<g fill="None" fill-opacity="0.0" stroke="#010101" stroke-opacity="1.00" stroke-width="0.3"><path d="
M 95.00 16.00 
C 93.82 17.62 90.91 16.95 89.00 17.00
C 81.14 17.22 75.73 16.82 68.23 20.23 C 60.73 23.64 61.14 22.99 52.75 28.75 C 44.36 34.51 35.67 45.45 31.32 54.32 C 26.98 63.19 28.52 64.80 25.98 72.98 C 23.43 81.15 25.52 87.99 31.30 82.30 C 37.09 76.61 40.37 76.62 46.78 74.78 C 53.18 72.94 60.40 75.03 65.30 78.70 C 70.20 82.36 74.07 87.28 78.75 82.75 C 83.44 78.22 88.06 74.25 94.00 75.00
C 97.19 75.40 96.38 86.81 96.00 91.00
C 97.00 91.00 98.00 91.00 99.00 91.00
C 98.49 85.38 99.38 79.63 99.00 74.00
C 100.00 74.11 101.73 73.53 102.00 75.00
C 110.74 74.51 116.25 82.26 123.00 86.00
C 131.87 73.74 152.07 70.01 163.25 80.75 C 174.42 91.50 172.03 78.85 170.98 71.02 C 169.92 63.20 166.38 56.70 162.92 50.08 C 159.46 43.47 155.33 38.44 149.75 33.25 C 144.18 28.06 138.91 25.38 132.08 21.92 C 125.25 18.46 115.96 17.00 108.00 17.00
C 105.63 17.00 100.39 17.99 99.00 16.00
C 97.63 14.05 101.33 5.30 97.08 5.08 C 92.84 4.87 96.28 14.23 95.00 16.00
M 167.00 78.00 
C 154.64 66.76 133.32 67.28 123.00 81.00
C 110.60 67.05 86.79 65.93 75.00 81.00
C 63.28 67.58 41.60 66.18 29.00 79.00
C 30.96 42.11 62.67 21.35 97.00 21.00 C 131.33 20.65 166.15 39.89 167.00 78.00 Z"/>
</g>
<g fill="None" fill-opacity="0.0" stroke="#828282" stroke-opacity="1.00" stroke-width="0.3"><path d="
M 89.00 17.00 
C 90.91 16.95 93.82 17.62 95.00 16.00
C 92.97 15.07 90.33 16.85 89.00 17.00 Z"/>
</g>
<g fill="None" fill-opacity="0.0" stroke="#7E7E7E" stroke-opacity="1.00" stroke-width="0.3"><path d="
M 108.00 17.00 
C 105.78 16.79 101.99 15.07 99.00 16.00
C 100.39 17.99 105.63 17.00 108.00 17.00 Z"/>
</g>
<g fill="None" fill-opacity="0.0" stroke="#FCFCFC" stroke-opacity="1.00" stroke-width="0.3"><path d="
M 167.00 78.00 
C 166.15 39.89 131.33 20.65 97.00 21.00 C 62.67 21.35 30.96 42.11 29.00 79.00
C 41.60 66.18 63.28 67.58 75.00 81.00
C 86.79 65.93 110.60 67.05 123.00 81.00
C 133.32 67.28 154.64 66.76 167.00 78.00
M 71.00 34.00 
C 82.18 37.39 75.47 57.89 64.00 53.00 C 52.53 48.11 59.03 30.37 71.00 34.00 Z"/>
</g>
<g fill="None" fill-opacity="0.0" stroke="#BCCA99" stroke-opacity="1.00" stroke-width="0.3"><path d="
M 71.00 34.00 
C 59.03 30.37 52.53 48.11 64.00 53.00 C 75.47 57.89 82.18 37.39 71.00 34.00
M 69.00 38.00 
C 74.89 39.58 72.28 51.11 65.78 48.22 C 59.27 45.33 62.67 36.30 69.00 38.00 Z"/>
</g>
<g fill="None" fill-opacity="0.0" stroke="#FCFCFA" stroke-opacity="1.00" stroke-width="0.3"><path d="
M 69.00 38.00 
C 62.67 36.30 59.27 45.33 65.78 48.22 C 72.28 51.11 74.89 39.58 69.00 38.00 Z"/>
</g>
<g fill="None" fill-opacity="0.0" stroke="#5A5A5A" stroke-opacity="1.00" stroke-width="0.3"><path d="
M 94.00 75.00 
C 96.80 76.80 94.70 87.67 95.00 91.00
C 95.50 90.95 96.00 91.00 96.00 91.00
C 96.38 86.81 97.19 75.40 94.00 75.00 Z"/>
</g>
<g fill="None" fill-opacity="0.0" stroke="#787878" stroke-opacity="1.00" stroke-width="0.3"><path d="
M 99.00 91.00 
C 99.50 91.00 100.00 91.00 100.00 91.00
C 100.39 86.65 98.01 76.71 102.00 75.00
C 101.73 73.53 100.00 74.11 99.00 74.00
C 99.38 79.63 98.49 85.38 99.00 91.00 Z"/>
</g>
<g fill="None" fill-opacity="0.0" stroke="#BDCB9B" stroke-opacity="1.00" stroke-width="0.3"><path d="
M 100.00 91.00 
C 100.00 91.00 99.50 91.00 99.00 91.00
C 98.00 91.00 97.00 91.00 96.00 91.00
C 96.00 91.00 95.50 90.95 95.00 91.00
C 86.24 93.74 83.15 101.37 82.00 110.00 C 80.85 118.63 88.83 125.36 90.00 133.00
C 78.85 133.04 72.48 130.67 69.93 142.93 C 67.38 155.18 70.95 155.10 83.00 155.00 C 95.05 154.90 101.13 153.90 113.00 155.00 C 124.87 156.10 128.73 152.74 125.92 141.08 C 123.11 129.41 113.64 134.19 105.00 133.00
C 106.88 126.18 113.44 116.68 112.00 109.00 C 110.56 101.32 109.04 91.84 100.00 91.00
M 122.00 150.00 
C 105.67 150.00 89.33 150.00 73.00 150.00
C 70.22 135.72 83.26 135.78 94.00 137.00
C 94.00 133.33 94.00 129.67 94.00 126.00
C 85.58 122.49 87.14 113.13 87.33 105.33 C 87.52 97.53 98.92 93.25 103.75 98.25 C 108.57 103.26 110.06 115.35 106.22 120.22 C 102.39 125.10 95.93 138.07 106.00 138.00 C 116.08 137.93 123.39 137.75 122.00 150.00 Z"/>
</g>
<g fill="None" fill-opacity="0.0" stroke="#FDFEFD" stroke-opacity="1.00" stroke-width="0.3"><path d="
M 122.00 150.00 
C 123.39 137.75 116.08 137.93 106.00 138.00 C 95.93 138.07 102.39 125.10 106.22 120.22 C 110.06 115.35 108.57 103.26 103.75 98.25 C 98.92 93.25 87.52 97.53 87.33 105.33 C 87.14 113.13 85.58 122.49 94.00 126.00
C 94.00 129.67 94.00 133.33 94.00 137.00
C 83.26 135.78 70.22 135.72 73.00 150.00
C 89.33 150.00 105.67 150.00 122.00 150.00 Z"/>
</g>
<g fill="None" fill-opacity="0.0" stroke="#000000" stroke-opacity="1.00" stroke-width="0.3"><path d="
M 59.00 138.00 
C 56.67 137.61 51.29 139.28 50.00 137.00
C 58.44 129.42 58.13 105.78 43.01 107.01 C 27.88 108.23 31.52 130.30 38.00 138.00
C 27.42 135.56 23.83 139.71 22.78 148.78 C 21.73 157.85 32.77 155.99 40.00 155.00 C 47.23 154.01 58.52 158.17 64.74 154.74 C 70.96 151.32 63.06 139.23 59.00 138.00
M 61.00 148.00 
C 61.00 148.24 62.91 150.07 62.00 151.00
C 56.37 150.63 48.39 151.50 43.00 151.00 C 37.61 150.50 28.27 152.80 27.00 149.00
C 24.45 136.55 40.48 146.22 41.97 138.97 C 43.47 131.73 34.21 125.65 37.00 118.00 C 39.79 110.35 46.89 107.73 50.75 116.25 C 54.62 124.77 46.18 128.76 46.00 137.00 C 45.83 145.25 61.19 137.77 61.00 148.00 Z"/>
</g>
<g fill="None" fill-opacity="0.0" stroke="#000000" stroke-opacity="1.00" stroke-width="0.3"><path d="
M 139.00 122.00 
C 138.92 123.62 138.88 125.38 139.00 127.00
C 139.33 131.33 141.44 134.58 144.00 138.00
C 141.91 140.14 137.84 138.42 135.00 139.00
C 130.27 138.14 124.77 153.40 131.00 155.00 C 137.23 156.60 146.85 154.24 154.00 155.00 C 161.15 155.76 171.45 156.94 169.33 147.67 C 167.21 138.40 164.45 138.37 155.00 139.00
C 158.58 131.44 164.16 121.30 156.75 113.25 C 149.34 105.19 139.48 112.64 139.00 122.00
M 165.00 150.00 
C 161.79 153.21 154.70 150.14 150.00 151.00 C 145.30 151.86 137.94 150.35 133.00 151.00
C 133.11 150.00 132.53 148.27 134.00 148.00
C 134.55 138.70 146.44 146.65 147.97 139.97 C 149.51 133.29 141.80 128.67 143.00 122.00 C 144.20 115.33 150.35 110.22 154.75 117.25 C 159.16 124.28 155.37 127.82 151.25 134.25 C 147.13 140.68 158.47 146.50 165.00 143.00
C 163.81 145.44 167.61 148.36 165.00 150.00 Z"/>
</g>
<g fill="None" fill-opacity="0.0" stroke="#F9F9F9" stroke-opacity="1.00" stroke-width="0.3"><path d="
M 27.00 149.00 
C 29.06 152.03 40.11 149.70 44.00 150.00 C 47.89 150.30 59.51 151.52 61.00 148.00
C 61.19 137.77 45.83 145.25 46.00 137.00 C 46.18 128.76 54.62 124.77 50.75 116.25 C 46.89 107.73 39.79 110.35 37.00 118.00 C 34.21 125.65 43.47 131.73 41.97 138.97 C 40.48 146.22 24.45 136.55 27.00 149.00 Z"/>
</g>
<g fill="None" fill-opacity="0.0" stroke="#FAFAFA" stroke-opacity="1.00" stroke-width="0.3"><path d="
M 134.00 148.00 
C 135.13 151.03 144.22 150.84 148.00 150.00 C 151.78 149.16 161.76 152.15 165.00 150.00
C 167.61 148.36 163.81 145.44 165.00 143.00
C 158.47 146.50 147.13 140.68 151.25 134.25 C 155.37 127.82 159.16 124.28 154.75 117.25 C 150.35 110.22 144.20 115.33 143.00 122.00 C 141.80 128.67 149.51 133.29 147.97 139.97 C 146.44 146.65 134.55 138.70 134.00 148.00 Z"/>
</g>
<g fill="None" fill-opacity="0.0" stroke="#7F7F7F" stroke-opacity="1.00" stroke-width="0.3"><path d="
M 139.00 127.00 
C 138.88 125.38 138.92 123.62 139.00 122.00
C 138.67 124.00 138.56 124.90 139.00 127.00 Z"/>
</g>
<g fill="None" fill-opacity="0.0" stroke="#7E7E7E" stroke-opacity="1.00" stroke-width="0.3"><path d="
M 59.00 138.00 
C 56.53 137.25 53.18 136.48 50.00 137.00
C 51.29 139.28 56.67 137.61 59.00 138.00 Z"/>
</g>
<g fill="None" fill-opacity="0.0" stroke="#808080" stroke-opacity="1.00" stroke-width="0.3"><path d="
M 135.00 139.00 
C 137.84 138.42 141.91 140.14 144.00 138.00
C 140.83 137.59 137.52 138.13 135.00 139.00 Z"/>
</g>
<g fill="None" fill-opacity="0.0" stroke="#7D7D7D" stroke-opacity="1.00" stroke-width="0.3"><path d="
M 27.00 149.00 
C 28.27 152.80 37.61 150.50 43.00 151.00 C 48.39 151.50 56.37 150.63 62.00 151.00
C 62.91 150.07 61.00 148.24 61.00 148.00
C 59.51 151.52 47.89 150.30 44.00 150.00 C 40.11 149.70 29.06 152.03 27.00 149.00 Z"/>
</g>
<g fill="None" fill-opacity="0.0" stroke="#7D7D7D" stroke-opacity="1.00" stroke-width="0.3"><path d="
M 165.00 150.00 
C 161.76 152.15 151.78 149.16 148.00 150.00 C 144.22 150.84 135.13 151.03 134.00 148.00
C 132.53 148.27 133.11 150.00 133.00 151.00
C 137.94 150.35 145.30 151.86 150.00 151.00 C 154.70 150.14 161.79 153.21 165.00 150.00 Z"/>
</g>
<g fill="#FDFDFD" fill-opacity="1.00" stroke="None">
<path d="
M 0.00 163.00 
L 185.00 163.00
L 185.00 0.00
L 0.00 0.00
L 0.00 163.00
M 99.00 16.00 
C 101.99 15.07 105.78 16.79 108.00 17.00
C 115.96 17.00 125.25 18.46 132.08 21.92 C 138.91 25.38 144.18 28.06 149.75 33.25 C 155.33 38.44 159.46 43.47 162.92 50.08 C 166.38 56.70 169.92 63.20 170.98 71.02 C 172.03 78.85 174.42 91.50 163.25 80.75 C 152.07 70.01 131.87 73.74 123.00 86.00
C 116.25 82.26 110.74 74.51 102.00 75.00
C 98.01 76.71 100.39 86.65 100.00 91.00
C 109.04 91.84 110.56 101.32 112.00 109.00 C 113.44 116.68 106.88 126.18 105.00 133.00
C 113.64 134.19 123.11 129.41 125.92 141.08 C 128.73 152.74 124.87 156.10 113.00 155.00 C 101.13 153.90 95.05 154.90 83.00 155.00 C 70.95 155.10 67.38 155.18 69.93 142.93 C 72.48 130.67 78.85 133.04 90.00 133.00
C 88.83 125.36 80.85 118.63 82.00 110.00 C 83.15 101.37 86.24 93.74 95.00 91.00
C 94.70 87.67 96.80 76.80 94.00 75.00
C 88.06 74.25 83.44 78.22 78.75 82.75 C 74.07 87.28 70.20 82.36 65.30 78.70 C 60.40 75.03 53.18 72.94 46.78 74.78 C 40.37 76.62 37.09 76.61 31.30 82.30 C 25.52 87.99 23.43 81.15 25.98 72.98 C 28.52 64.80 26.98 63.19 31.32 54.32 C 35.67 45.45 44.36 34.51 52.75 28.75 C 61.14 22.99 60.73 23.64 68.23 20.23 C 75.73 16.82 81.14 17.22 89.00 17.00
C 90.33 16.85 92.97 15.07 95.00 16.00
C 96.28 14.23 92.84 4.87 97.08 5.08 C 101.33 5.30 97.63 14.05 99.00 16.00
M 50.00 137.00 
C 53.18 136.48 56.53 137.25 59.00 138.00
C 63.06 139.23 70.96 151.32 64.74 154.74 C 58.52 158.17 47.23 154.01 40.00 155.00 C 32.77 155.99 21.73 157.85 22.78 148.78 C 23.83 139.71 27.42 135.56 38.00 138.00
C 31.52 130.30 27.88 108.23 43.01 107.01 C 58.13 105.78 58.44 129.42 50.00 137.00
M 135.00 139.00 
C 137.52 138.13 140.83 137.59 144.00 138.00
C 141.44 134.58 139.33 131.33 139.00 127.00
C 138.56 124.90 138.67 124.00 139.00 122.00
C 139.48 112.64 149.34 105.19 156.75 113.25 C 164.16 121.30 158.58 131.44 155.00 139.00
C 164.45 138.37 167.21 138.40 169.33 147.67 C 171.45 156.94 161.15 155.76 154.00 155.00 C 146.85 154.24 137.23 156.60 131.00 155.00 C 124.77 153.40 130.27 138.14 135.00 139.00 Z"/>
</g>
<g fill="#010101" fill-opacity="1.00" stroke="None">
<path d="
M 95.00 16.00 
C 93.82 17.62 90.91 16.95 89.00 17.00
C 81.14 17.22 75.73 16.82 68.23 20.23 C 60.73 23.64 61.14 22.99 52.75 28.75 C 44.36 34.51 35.67 45.45 31.32 54.32 C 26.98 63.19 28.52 64.80 25.98 72.98 C 23.43 81.15 25.52 87.99 31.30 82.30 C 37.09 76.61 40.37 76.62 46.78 74.78 C 53.18 72.94 60.40 75.03 65.30 78.70 C 70.20 82.36 74.07 87.28 78.75 82.75 C 83.44 78.22 88.06 74.25 94.00 75.00
C 97.19 75.40 96.38 86.81 96.00 91.00
C 97.00 91.00 98.00 91.00 99.00 91.00
C 98.49 85.38 99.38 79.63 99.00 74.00
C 100.00 74.11 101.73 73.53 102.00 75.00
C 110.74 74.51 116.25 82.26 123.00 86.00
C 131.87 73.74 152.07 70.01 163.25 80.75 C 174.42 91.50 172.03 78.85 170.98 71.02 C 169.92 63.20 166.38 56.70 162.92 50.08 C 159.46 43.47 155.33 38.44 149.75 33.25 C 144.18 28.06 138.91 25.38 132.08 21.92 C 125.25 18.46 115.96 17.00 108.00 17.00
C 105.63 17.00 100.39 17.99 99.00 16.00
C 97.63 14.05 101.33 5.30 97.08 5.08 C 92.84 4.87 96.28 14.23 95.00 16.00
M 167.00 78.00 
C 154.64 66.76 133.32 67.28 123.00 81.00
C 110.60 67.05 86.79 65.93 75.00 81.00
C 63.28 67.58 41.60 66.18 29.00 79.00
C 30.96 42.11 62.67 21.35 97.00 21.00 C 131.33 20.65 166.15 39.89 167.00 78.00 Z"/>
</g>
<g fill="#828282" fill-opacity="1.00" stroke="None">
<path d="
M 89.00 17.00 
C 90.91 16.95 93.82 17.62 95.00 16.00
C 92.97 15.07 90.33 16.85 89.00 17.00 Z"/>
</g>
<g fill="#7E7E7E" fill-opacity="1.00" stroke="None">
<path d="
M 108.00 17.00 
C 105.78 16.79 101.99 15.07 99.00 16.00
C 100.39 17.99 105.63 17.00 108.00 17.00 Z"/>
</g>
<g fill="#FCFCFC" fill-opacity="1.00" stroke="None">
<path d="
M 167.00 78.00 
C 166.15 39.89 131.33 20.65 97.00 21.00 C 62.67 21.35 30.96 42.11 29.00 79.00
C 41.60 66.18 63.28 67.58 75.00 81.00
C 86.79 65.93 110.60 67.05 123.00 81.00
C 133.32 67.28 154.64 66.76 167.00 78.00
M 71.00 34.00 
C 82.18 37.39 75.47 57.89 64.00 53.00 C 52.53 48.11 59.03 30.37 71.00 34.00 Z"/>
</g>
<g fill="#BCCA99" fill-opacity="1.00" stroke="None">
<path d="
M 71.00 34.00 
C 59.03 30.37 52.53 48.11 64.00 53.00 C 75.47 57.89 82.18 37.39 71.00 34.00
M 69.00 38.00 
C 74.89 39.58 72.28 51.11 65.78 48.22 C 59.27 45.33 62.67 36.30 69.00 38.00 Z"/>
</g>
<g fill="#FCFCFA" fill-opacity="1.00" stroke="None">
<path d="
M 69.00 38.00 
C 62.67 36.30 59.27 45.33 65.78 48.22 C 72.28 51.11 74.89 39.58 69.00 38.00 Z"/>
</g>
<g fill="#5A5A5A" fill-opacity="1.00" stroke="None">
<path d="
M 94.00 75.00 
C 96.80 76.80 94.70 87.67 95.00 91.00
C 95.50 90.95 96.00 91.00 96.00 91.00
C 96.38 86.81 97.19 75.40 94.00 75.00 Z"/>
</g>
<g fill="#787878" fill-opacity="1.00" stroke="None">
<path d="
M 99.00 91.00 
C 99.50 91.00 100.00 91.00 100.00 91.00
C 100.39 86.65 98.01 76.71 102.00 75.00
C 101.73 73.53 100.00 74.11 99.00 74.00
C 99.38 79.63 98.49 85.38 99.00 91.00 Z"/>
</g>
<g fill="#BDCB9B" fill-opacity="1.00" stroke="None">
<path d="
M 100.00 91.00 
C 100.00 91.00 99.50 91.00 99.00 91.00
C 98.00 91.00 97.00 91.00 96.00 91.00
C 96.00 91.00 95.50 90.95 95.00 91.00
C 86.24 93.74 83.15 101.37 82.00 110.00 C 80.85 118.63 88.83 125.36 90.00 133.00
C 78.85 133.04 72.48 130.67 69.93 142.93 C 67.38 155.18 70.95 155.10 83.00 155.00 C 95.05 154.90 101.13 153.90 113.00 155.00 C 124.87 156.10 128.73 152.74 125.92 141.08 C 123.11 129.41 113.64 134.19 105.00 133.00
C 106.88 126.18 113.44 116.68 112.00 109.00 C 110.56 101.32 109.04 91.84 100.00 91.00
M 122.00 150.00 
C 105.67 150.00 89.33 150.00 73.00 150.00
C 70.22 135.72 83.26 135.78 94.00 137.00
C 94.00 133.33 94.00 129.67 94.00 126.00
C 85.58 122.49 87.14 113.13 87.33 105.33 C 87.52 97.53 98.92 93.25 103.75 98.25 C 108.57 103.26 110.06 115.35 106.22 120.22 C 102.39 125.10 95.93 138.07 106.00 138.00 C 116.08 137.93 123.39 137.75 122.00 150.00 Z"/>
</g>
<g fill="#FDFEFD" fill-opacity="1.00" stroke="None">
<path d="
M 122.00 150.00 
C 123.39 137.75 116.08 137.93 106.00 138.00 C 95.93 138.07 102.39 125.10 106.22 120.22 C 110.06 115.35 108.57 103.26 103.75 98.25 C 98.92 93.25 87.52 97.53 87.33 105.33 C 87.14 113.13 85.58 122.49 94.00 126.00
C 94.00 129.67 94.00 133.33 94.00 137.00
C 83.26 135.78 70.22 135.72 73.00 150.00
C 89.33 150.00 105.67 150.00 122.00 150.00 Z"/>
</g>
<g fill="#000000" fill-opacity="1.00" stroke="None">
<path d="
M 59.00 138.00 
C 56.67 137.61 51.29 139.28 50.00 137.00
C 58.44 129.42 58.13 105.78 43.01 107.01 C 27.88 108.23 31.52 130.30 38.00 138.00
C 27.42 135.56 23.83 139.71 22.78 148.78 C 21.73 157.85 32.77 155.99 40.00 155.00 C 47.23 154.01 58.52 158.17 64.74 154.74 C 70.96 151.32 63.06 139.23 59.00 138.00
M 61.00 148.00 
C 61.00 148.24 62.91 150.07 62.00 151.00
C 56.37 150.63 48.39 151.50 43.00 151.00 C 37.61 150.50 28.27 152.80 27.00 149.00
C 24.45 136.55 40.48 146.22 41.97 138.97 C 43.47 131.73 34.21 125.65 37.00 118.00 C 39.79 110.35 46.89 107.73 50.75 116.25 C 54.62 124.77 46.18 128.76 46.00 137.00 C 45.83 145.25 61.19 137.77 61.00 148.00 Z"/>
</g>
<g fill="#000000" fill-opacity="1.00" stroke="None">
<path d="
M 139.00 122.00 
C 138.92 123.62 138.88 125.38 139.00 127.00
C 139.33 131.33 141.44 134.58 144.00 138.00
C 141.91 140.14 137.84 138.42 135.00 139.00
C 130.27 138.14 124.77 153.40 131.00 155.00 C 137.23 156.60 146.85 154.24 154.00 155.00 C 161.15 155.76 171.45 156.94 169.33 147.67 C 167.21 138.40 164.45 138.37 155.00 139.00
C 158.58 131.44 164.16 121.30 156.75 113.25 C 149.34 105.19 139.48 112.64 139.00 122.00
M 165.00 150.00 
C 161.79 153.21 154.70 150.14 150.00 151.00 C 145.30 151.86 137.94 150.35 133.00 151.00
C 133.11 150.00 132.53 148.27 134.00 148.00
C 134.55 138.70 146.44 146.65 147.97 139.97 C 149.51 133.29 141.80 128.67 143.00 122.00 C 144.20 115.33 150.35 110.22 154.75 117.25 C 159.16 124.28 155.37 127.82 151.25 134.25 C 147.13 140.68 158.47 146.50 165.00 143.00
C 163.81 145.44 167.61 148.36 165.00 150.00 Z"/>
</g>
<g fill="#F9F9F9" fill-opacity="1.00" stroke="None">
<path d="
M 27.00 149.00 
C 29.06 152.03 40.11 149.70 44.00 150.00 C 47.89 150.30 59.51 151.52 61.00 148.00
C 61.19 137.77 45.83 145.25 46.00 137.00 C 46.18 128.76 54.62 124.77 50.75 116.25 C 46.89 107.73 39.79 110.35 37.00 118.00 C 34.21 125.65 43.47 131.73 41.97 138.97 C 40.48 146.22 24.45 136.55 27.00 149.00 Z"/>
</g>
<g fill="#FAFAFA" fill-opacity="1.00" stroke="None">
<path d="
M 134.00 148.00 
C 135.13 151.03 144.22 150.84 148.00 150.00 C 151.78 149.16 161.76 152.15 165.00 150.00
C 167.61 148.36 163.81 145.44 165.00 143.00
C 158.47 146.50 147.13 140.68 151.25 134.25 C 155.37 127.82 159.16 124.28 154.75 117.25 C 150.35 110.22 144.20 115.33 143.00 122.00 C 141.80 128.67 149.51 133.29 147.97 139.97 C 146.44 146.65 134.55 138.70 134.00 148.00 Z"/>
</g>
<g fill="#7F7F7F" fill-opacity="1.00" stroke="None">
<path d="
M 139.00 127.00 
C 138.88 125.38 138.92 123.62 139.00 122.00
C 138.67 124.00 138.56 124.90 139.00 127.00 Z"/>
</g>
<g fill="#7E7E7E" fill-opacity="1.00" stroke="None">
<path d="
M 59.00 138.00 
C 56.53 137.25 53.18 136.48 50.00 137.00
C 51.29 139.28 56.67 137.61 59.00 138.00 Z"/>
</g>
<g fill="#808080" fill-opacity="1.00" stroke="None">
<path d="
M 135.00 139.00 
C 137.84 138.42 141.91 140.14 144.00 138.00
C 140.83 137.59 137.52 138.13 135.00 139.00 Z"/>
</g>
<g fill="#7D7D7D" fill-opacity="1.00" stroke="None">
<path d="
M 27.00 149.00 
C 28.27 152.80 37.61 150.50 43.00 151.00 C 48.39 151.50 56.37 150.63 62.00 151.00
C 62.91 150.07 61.00 148.24 61.00 148.00
C 59.51 151.52 47.89 150.30 44.00 150.00 C 40.11 149.70 29.06 152.03 27.00 149.00 Z"/>
</g>
<g fill="#7D7D7D" fill-opacity="1.00" stroke="None">
<path d="
M 165.00 150.00 
C 161.76 152.15 151.78 149.16 148.00 150.00 C 144.22 150.84 135.13 151.03 134.00 148.00
C 132.53 148.27 133.11 150.00 133.00 151.00
C 137.94 150.35 145.30 151.86 150.00 151.00 C 154.70 150.14 161.79 153.21 165.00 150.00 Z"/>
</g>
</svg>